<svg width="154" height="54" viewBox="0 0 154 54" fill="none" xmlns="http://www.w3.org/2000/svg">
<g clip-path="url(#clip0_5_2)">
<path fill-rule="evenodd" clip-rule="evenodd" d="M59.358 9.65533H62.0223V19.9491H66.4004V22.4014H59.358V9.65533Z" fill="white"/>
<path fill-rule="evenodd" clip-rule="evenodd" d="M73.1986 16.9705H75.4719L74.3358 14.3829L73.1986 16.9705ZM77.7547 22.1893L76.4737 19.2959H72.1628L70.7634 22.4014H67.9287L74.3102 8.69629L80.6917 22.4014H77.8485L77.7547 22.1893Z" fill="white"/>
<path fill-rule="evenodd" clip-rule="evenodd" d="M82.2193 8.70529L90.2057 16.9199V9.65495H92.8606V23.344L84.8837 14.7895V22.4019H82.2193V8.70529Z" fill="white"/>
<path fill-rule="evenodd" clip-rule="evenodd" d="M107.075 15.5281V17.471C107.075 18.111 106.96 18.753 106.728 19.3978C106.178 20.8521 105.158 21.8358 103.664 22.3509C103.081 22.5431 102.441 22.6567 101.746 22.6898C101.56 22.7012 101.375 22.7078 101.194 22.7078C100.691 22.7078 100.207 22.67 99.7438 22.597C97.3616 22.2174 95.7407 20.9165 94.881 18.6933C94.5581 17.8781 94.3962 16.9957 94.3962 16.0451C94.3915 16.0404 94.3886 16.0347 94.3886 16.029C94.3886 15.0898 94.5581 14.2158 94.898 13.4063C95.2256 12.5921 95.7123 11.8734 96.358 11.2504C96.9734 10.6454 97.7015 10.1815 98.5376 9.85955C99.3642 9.54805 100.261 9.38993 101.228 9.38425H101.254C102.209 9.38425 103.09 9.56793 103.894 9.93529C104.317 10.1398 104.693 10.3746 105.021 10.6397C105.282 10.8499 105.5 11.0487 105.675 11.2381C105.851 11.4275 106.043 11.6471 106.252 11.8961L104.266 13.3978C104.125 13.2397 103.996 13.0986 103.88 12.9736C103.764 12.8496 103.622 12.7189 103.452 12.5835C102.841 12.1082 102.1 11.8706 101.228 11.8706C100.023 11.8706 99.0422 12.255 98.2838 13.0247C97.5254 13.7831 97.1467 14.7839 97.1467 16.029C97.1467 17.3072 97.5254 18.3307 98.2838 19.1005C99.0422 19.8759 100.029 20.2631 101.245 20.2631C101.687 20.2631 102.118 20.2139 102.54 20.1145C102.96 20.016 103.336 19.8333 103.664 19.5672C104.173 19.1544 104.448 18.5949 104.487 17.8876H101.602V15.5281H107.075Z" fill="white"/>
<path fill-rule="evenodd" clip-rule="evenodd" d="M111.233 9.65533V17.3189C111.233 18.2467 111.436 18.9654 111.841 19.4738C112.244 19.9832 112.928 20.2379 113.89 20.2379C114.845 20.2379 115.524 19.9822 115.926 19.47C116.328 18.9578 116.529 18.2411 116.529 17.3189V9.65533H119.193V17.5054C119.193 20.9792 117.425 22.7157 113.89 22.7157C110.365 22.7157 108.603 20.9792 108.603 17.5054V9.65533H111.233Z" fill="white"/>
<path fill-rule="evenodd" clip-rule="evenodd" d="M124.489 16.9705H126.763L125.627 14.3829L124.489 16.9705ZM129.045 22.1893L127.764 19.2959H123.454L122.054 22.4014H119.219L125.601 8.69629L131.982 22.4014H129.139L129.045 22.1893Z" fill="white"/>
<path fill-rule="evenodd" clip-rule="evenodd" d="M144.126 15.5281V17.471C144.126 18.111 144.01 18.753 143.778 19.3978C143.229 20.8521 142.208 21.8358 140.714 22.3509C140.132 22.5431 139.492 22.6567 138.797 22.6898C138.61 22.7012 138.426 22.7078 138.245 22.7078C137.741 22.7078 137.257 22.67 136.794 22.597C134.412 22.2174 132.791 20.9165 131.932 18.6933C131.609 17.8781 131.447 16.9957 131.447 16.0451C131.442 16.0404 131.439 16.0347 131.439 16.029C131.439 15.0898 131.609 14.2158 131.949 13.4063C132.276 12.5921 132.763 11.8734 133.409 11.2504C134.024 10.6454 134.752 10.1815 135.588 9.85955C136.415 9.54805 137.311 9.38993 138.279 9.38425H138.305C139.26 9.38425 140.141 9.56793 140.944 9.93529C141.368 10.1398 141.743 10.3746 142.072 10.6397C142.332 10.8499 142.55 11.0487 142.725 11.2381C142.901 11.4275 143.094 11.6471 143.303 11.8961L141.316 13.3978C141.175 13.2397 141.047 13.0986 140.931 12.9736C140.815 12.8496 140.673 12.7189 140.502 12.5835C139.892 12.1082 139.15 11.8706 138.279 11.8706C137.074 11.8706 136.093 12.255 135.334 13.0247C134.576 13.7831 134.197 14.7839 134.197 16.029C134.197 17.3072 134.576 18.3307 135.334 19.1005C136.093 19.8759 137.079 20.2631 138.296 20.2631C138.737 20.2631 139.169 20.2139 139.59 20.1145C140.011 20.016 140.387 19.8333 140.714 19.5672C141.224 19.1544 141.498 18.5949 141.538 17.8876H138.653V15.5281H144.126Z" fill="white"/>
<path fill-rule="evenodd" clip-rule="evenodd" d="M145.653 9.65533H153.079V12.0233H148.31V14.3317H153.079V16.7583H148.31V19.9491H153.079V22.4014H145.653V9.65533Z" fill="white"/>
<path fill-rule="evenodd" clip-rule="evenodd" d="M60.9684 38.8469C61.1209 39.4017 61.3481 39.8401 61.652 40.162C61.9541 40.4848 62.4284 40.6458 63.0732 40.6458C63.5135 40.6458 63.8837 40.5275 64.181 40.2898C64.4773 40.0522 64.626 39.6905 64.626 39.2029C64.626 38.7105 64.3088 38.3024 63.6754 37.9777C63.041 37.652 62.5222 37.3793 62.1141 37.1577C61.3443 36.7563 60.6636 36.2668 60.069 35.6902C59.5028 35.1467 59.2197 34.4233 59.2197 33.5182V33.3648C59.2538 32.3631 59.6552 31.5147 60.4259 30.8188C61.172 30.1456 62.0431 29.8095 63.0391 29.8095H63.1414C63.9727 29.8266 64.6724 29.9828 65.2414 30.2801C65.8095 30.5774 66.3142 31.0849 66.7554 31.8035L64.9574 33.3989C64.7529 33.076 64.5095 32.7882 64.2264 32.5335C63.9556 32.2902 63.6224 32.168 63.2257 32.168H63.1745C62.846 32.1851 62.5572 32.2987 62.3053 32.5079C62.0535 32.7172 61.9276 33.0031 61.9276 33.3648C61.9276 33.7104 62.1425 34.0314 62.5723 34.3287C63.0022 34.625 63.4036 34.8721 63.7776 35.071C64.6942 35.5624 65.5226 36.103 66.264 36.6919C66.9873 37.2685 67.35 38.1282 67.35 39.271V39.3222C67.3396 40.4479 66.9391 41.3531 66.1494 42.0376C65.3607 42.7222 64.377 43.1009 63.2001 43.1747C63.1158 43.1804 63.0278 43.1833 62.9369 43.1833C62.1567 43.1833 61.4153 42.9769 60.7137 42.564C59.9269 42.1058 59.356 41.4354 59 40.553L60.9684 38.8469Z" fill="white"/>
<path fill-rule="evenodd" clip-rule="evenodd" d="M79.3269 33.6536C78.2854 32.7655 77.1265 32.3214 75.8474 32.3214C74.6317 32.3214 73.6441 32.7087 72.8857 33.4841C72.1273 34.2595 71.7486 35.2717 71.7486 36.5215C71.7486 37.7268 72.1198 38.72 72.8611 39.5002C73.5959 40.2699 74.5247 40.6553 75.6438 40.6553C76.6455 40.6553 77.5791 40.3864 78.4445 39.8486C78.7162 39.6791 78.9633 39.5002 79.1877 39.3146C79.4112 39.1271 79.6441 38.9292 79.8874 38.72V41.8767L79.7426 41.978C79.1603 42.3917 78.5524 42.6881 77.919 42.8699C77.2401 43.0678 76.5414 43.1662 75.8228 43.1662C75.3636 43.1662 74.8939 43.1265 74.4139 43.0479C72.5525 42.7307 71.118 41.8123 70.1116 40.2898C69.3693 39.1811 69 37.919 69 36.5054C69 35.0965 69.3731 33.8373 70.1191 32.7285C70.8775 31.5971 71.8821 30.7885 73.1319 30.3019C73.9585 29.9733 74.8125 29.8095 75.6949 29.8095C76.0737 29.8095 76.4619 29.8408 76.8586 29.9032C77.9105 30.067 78.9122 30.4742 79.8619 31.1246L80.0228 31.2354L79.8704 34.1118L79.3269 33.6536Z" fill="white"/>
<path fill-rule="evenodd" clip-rule="evenodd" d="M82 29.8095H84.6568V34.2482H89.8841V29.8095H92.54V42.5555H89.8841V36.7004H84.6568V42.5555H82V29.8095Z" fill="white"/>
<path fill-rule="evenodd" clip-rule="evenodd" d="M104.846 36.4713C104.846 35.9004 104.744 35.3683 104.54 34.8759C104.099 33.8126 103.372 33.0628 102.359 32.6272C101.833 32.4066 101.31 32.2958 100.79 32.2958C100.275 32.2958 99.7595 32.4038 99.2444 32.6187C99.1592 32.6585 99.039 32.721 98.8837 32.8052C98.7284 32.8904 98.6167 32.9586 98.5495 33.0088C98.3506 33.1395 98.1471 33.3089 97.9378 33.5182V33.5267C97.7513 33.7132 97.5809 33.9206 97.4284 34.1459C97.2874 34.3608 97.1624 34.6013 97.0544 34.8674C96.8518 35.3768 96.7496 35.9089 96.7496 36.4628C96.7496 36.5991 96.7552 36.7345 96.7666 36.8699C96.8291 37.5724 97.0497 38.2106 97.4284 38.7882C97.8924 39.4954 98.4983 40.0077 99.2444 40.3239C99.7879 40.5559 100.32 40.6723 100.841 40.6723C101.598 40.6723 102.331 40.4261 103.038 39.9338C104.243 39.1139 104.846 37.9597 104.846 36.4713ZM107.594 36.4713C107.594 37.3651 107.426 38.2229 107.086 39.0428C106.921 39.4282 106.713 39.806 106.458 40.18C105.683 41.3057 104.659 42.1266 103.386 42.6407C102.548 42.9806 101.695 43.1501 100.823 43.1501C100.376 43.1501 99.9233 43.1047 99.465 43.0147C98.5599 42.8386 97.7456 42.5082 97.0213 42.0215C96.6823 41.8066 96.3396 41.532 95.994 41.1987C95.3435 40.5701 94.8512 39.8543 94.5179 39.0514C94.1733 38.2362 94 37.3878 94 36.5054C94 36.2791 94.0114 36.0528 94.0341 35.8265C94.1411 34.7008 94.5094 33.6791 95.1371 32.7626C95.6408 32.0279 96.2714 31.4106 97.0298 30.9125V30.905C98.1499 30.175 99.4092 29.8095 100.806 29.8095C102.176 29.8095 103.428 30.175 104.566 30.905C105.318 31.4021 105.949 32.0251 106.458 32.7711C107.216 33.8912 107.594 35.1249 107.594 36.4713Z" fill="white"/>
<path fill-rule="evenodd" clip-rule="evenodd" d="M119.846 36.4713C119.846 35.9004 119.744 35.3683 119.54 34.8759C119.099 33.8126 118.372 33.0628 117.359 32.6272C116.833 32.4066 116.31 32.2958 115.79 32.2958C115.275 32.2958 114.759 32.4038 114.244 32.6187C114.159 32.6585 114.039 32.721 113.884 32.8052C113.728 32.8904 113.617 32.9586 113.549 33.0088C113.351 33.1395 113.147 33.3089 112.938 33.5182V33.5267C112.751 33.7132 112.581 33.9206 112.428 34.1459C112.287 34.3608 112.162 34.6013 112.054 34.8674C111.852 35.3768 111.75 35.9089 111.75 36.4628C111.75 36.5991 111.755 36.7345 111.767 36.8699C111.829 37.5724 112.05 38.2106 112.428 38.7882C112.892 39.4954 113.498 40.0077 114.244 40.3239C114.788 40.5559 115.32 40.6723 115.841 40.6723C116.598 40.6723 117.331 40.4261 118.038 39.9338C119.243 39.1139 119.846 37.9597 119.846 36.4713ZM122.594 36.4713C122.594 37.3651 122.426 38.2229 122.086 39.0428C121.921 39.4282 121.713 39.806 121.458 40.18C120.683 41.3057 119.659 42.1266 118.386 42.6407C117.548 42.9806 116.695 43.1501 115.823 43.1501C115.376 43.1501 114.923 43.1047 114.465 43.0147C113.56 42.8386 112.746 42.5082 112.021 42.0215C111.682 41.8066 111.34 41.532 110.994 41.1987C110.344 40.5701 109.851 39.8543 109.518 39.0514C109.173 38.2362 109 37.3878 109 36.5054C109 36.2791 109.011 36.0528 109.034 35.8265C109.141 34.7008 109.509 33.6791 110.137 32.7626C110.641 32.0279 111.271 31.4106 112.03 30.9125V30.905C113.15 30.175 114.409 29.8095 115.806 29.8095C117.176 29.8095 118.428 30.175 119.566 30.905C120.318 31.4021 120.949 32.0251 121.458 32.7711C122.216 33.8912 122.594 35.1249 122.594 36.4713Z" fill="white"/>
<path fill-rule="evenodd" clip-rule="evenodd" d="M124 29.8095H126.664V40.1033H131.043V42.5555H124V29.8095Z" fill="white"/>
<path fill-rule="evenodd" clip-rule="evenodd" d="M22.7493 1.69156L39.1586 2.84004L44.0905 7.149L44.7202 51.4391L33.5553 44.5122H19.533L24.57 26.5653L32.1266 25.0959L22.7493 1.69156Z" fill="#DC2B8E"/>
<path fill-rule="evenodd" clip-rule="evenodd" d="M17.625 11.4487C17.625 12.636 16.6612 13.5989 15.4748 13.5989C14.2866 13.5989 13.3237 12.636 13.3237 11.4487C13.3237 10.2604 14.2866 9.29846 15.4748 9.29846C16.6612 9.29846 17.625 10.2604 17.625 11.4487Z" fill="white"/>
<path fill-rule="evenodd" clip-rule="evenodd" d="M41.7116 46.5293L34.7979 41.657H22.7592L25.2985 27.4605L33.426 25.9834L25.8126 4.73407H37.2227C39.6977 4.73407 41.7116 6.74794 41.7116 9.22292V46.5293ZM3.78689 37.1672V9.22292C3.78689 6.74794 5.80077 4.73407 8.27669 4.73407H21.7896L28.3548 23.0559L22.0339 24.2044L21.2954 28.3353L13.9661 25.688L12.6803 29.2499L20.6194 32.1169L18.9132 41.657H8.27669C5.80077 41.657 3.78689 39.6431 3.78689 37.1672ZM37.2227 0.946808H8.27669C3.71304 0.946808 -0.000366211 4.65927 -0.000366211 9.22292V37.1672C-0.000366211 41.7318 3.71304 45.4443 8.27669 45.4443H33.5983L45.4988 53.8311V9.22292C45.4988 4.65927 41.7864 0.946808 37.2227 0.946808Z" fill="white"/>
<path fill-rule="evenodd" clip-rule="evenodd" d="M27.6563 33.9429L27.1488 32.7187C27.6979 32.4905 27.9593 31.858 27.732 31.3089L28.9563 30.8014C29.4637 32.0256 28.8805 33.4354 27.6563 33.9429Z" fill="white"/>
<path fill-rule="evenodd" clip-rule="evenodd" d="M29.4824 36.9493L28.9749 35.7251C29.9558 35.318 30.7199 34.5539 31.1251 33.573C31.5313 32.5921 31.5313 31.5108 31.1242 30.5309L32.3484 30.0234C33.4685 32.7227 32.1827 35.8302 29.4824 36.9493Z" fill="white"/>
<path fill-rule="evenodd" clip-rule="evenodd" d="M31.3983 40.1772L30.8908 38.953C32.6547 38.222 34.0276 36.8473 34.7585 35.0834C35.4876 33.3194 35.4876 31.3766 34.7566 29.6127L35.9809 29.1052C36.8472 31.1957 36.8482 33.4993 35.9828 35.5899C35.1174 37.6814 33.4889 39.3109 31.3983 40.1772Z" fill="white"/>
</g>
<defs>
<clipPath id="clip0_5_2">
<rect width="154" height="54" fill="white"/>
</clipPath>
</defs>
</svg>
